<svg id="Ebene_1" xmlns="http://www.w3.org/2000/svg" viewBox="0 0 500 62"><style>.st0{fill:#575756}</style><path class="st0" d="M232.1 51.1c-3.2 1-6.4 1.5-9.8 1.5-12.2 0-18.3-6.1-18.3-18.2 0-11.5 6.1-17.2 18.3-17.2 3.3 0 6.6.5 9.8 1.5v2.2c-3.2-1-6.3-1.5-9.3-1.5-10.8 0-16.3 5-16.3 15 0 10.7 5.4 16 16.3 16 3 0 6.1-.5 9.3-1.5v2.2zM237.8 52.3v-35h2.6v12.1c4-1.9 7.5-2.8 10.7-2.8 5.6 0 8.4 3.2 8.4 9.6v16.1h-2.6V35.1c0-4.1-2.4-6.2-7.2-6.2-2.6 0-5.7 1.1-9.3 3.3v20.1h-2.6zM275.7 39.3c-5.6 0-8.3 1.7-8.3 5.1 0 3.8 2.4 5.6 7.1 5.6 3.1 0 6.3-.7 9.4-2v-8.3c-2.8-.2-5.5-.4-8.2-.4m-10.9 5.2c0-4.9 3.6-7.4 10.9-7.4 2.6 0 5.3.2 8.2.5v-3.2c0-3.8-3-5.7-8.9-5.7-2.6 0-5.4.4-8.1 1.2v-2.2c2.8-.8 5.5-1.2 8.1-1.2 7.6 0 11.4 2.7 11.4 8.2v17.5h-1.6l-.8-1.8c-3.4 1.2-6.6 1.8-9.6 1.8-6.3.1-9.6-2.5-9.6-7.7M296.1 52.3h-2.6V26.6h2.6v25.7zm0-32.6h-2.6v-2.4h2.6v2.4zM303.1 52.3V26.6h1.8l.3 3.3c1.4-2.2 3.7-3.3 6.9-3.3v2.1c-3.1 0-5.2 1.1-6.5 3.3v20.4h-2.5zM317.5 51.1v-2.4c3.7 1.1 7.7 1.7 12.1 1.7 7.2 0 10.7-2.9 10.7-8.6 0-3.9-2.4-5.9-7.1-5.9h-7.7c-6.5 0-9.8-2.9-9.8-8.6 0-6.8 4.7-10.3 14.1-10.3 3.9 0 7.7.5 11.4 1.5v2.2c-3.7-1-7.5-1.5-11.4-1.5-7.7 0-11.5 2.7-11.5 8.1 0 4.1 2.4 6.1 7.2 6.1h7.7c6.5 0 9.7 2.8 9.7 8.3 0 7.2-4.4 10.8-13.3 10.8-4.4 0-8.4-.5-12.1-1.4M344.6 26.6h3l9.5 23.2 9.4-23.2h2.8L358.1 53c-1.9 4.7-4.7 7.6-8.5 8.7l-.8-2.1c3-1.1 5.2-3.4 6.8-7l-11-26zM373.4 51.1v-2.4c2.9 1 5.8 1.5 8.9 1.5 5.4 0 8.1-1.7 8.1-5.1 0-2.8-2-4.2-6-4.2h-4.2c-5.4 0-8.1-2.3-8.1-6.8 0-4.9 3.6-7.3 10.7-7.3 3.1 0 6 .4 8.9 1.2v2.4c-2.9-1-5.8-1.5-8.9-1.5-5.4 0-8.1 1.7-8.1 5.1 0 2.9 1.8 4.4 5.5 4.4h4.2c5.7 0 8.6 2.2 8.6 6.6 0 4.9-3.6 7.3-10.7 7.3-3.1 0-6.1-.4-8.9-1.2M398.3 22.4h1.6l.5 4.2h6.5v2.2h-6V45c0 3.4 1.3 5.1 3.8 5.1h2.1v2.2h-2.1c-4.3 0-6.5-2.3-6.5-6.9v-23zM412 37.7h16.8c.4-6-2.2-9-7.8-9-5.7 0-8.7 3-9 9m19.3 2.3H412c0 6.7 4 10.1 11.9 10.1 2.3 0 4.5-.2 6.8-.7v2.2c-2.3.5-5 .7-8.3.7-8.7 0-13-4.4-13-13.1 0-8.4 4.1-12.6 12.3-12.6 7.6 0 10.8 4.5 9.6 13.4M437.4 52.3V26.6h1.8l.3 3.2c3.4-2.2 6.8-3.2 10-3.2 3.1 0 5.2 1.2 6.4 3.5 3.1-2.3 6.3-3.5 9.5-3.5 5.4 0 8.1 2.8 8.1 8.5v17.1h-2.6V35.1c0-4.2-2-6.2-6.1-6.2-3.1 0-5.7 1.1-8 3.3v20.1h-2.6V34.7c0-3.9-1.8-5.8-5.5-5.8-3.2 0-6.1 1.1-8.8 3.3v20.1h-2.5zM480.4 51.1v-2.4c2.9 1 5.8 1.5 8.9 1.5 5.4 0 8.1-1.7 8.1-5.1 0-2.8-2-4.2-6-4.2h-4.2c-5.4 0-8.1-2.3-8.1-6.8 0-4.9 3.6-7.3 10.7-7.3 3.1 0 6 .4 8.9 1.2v2.4c-2.9-1-5.8-1.5-8.9-1.5-5.4 0-8.1 1.7-8.1 5.1 0 2.9 1.8 4.4 5.5 4.4h4.2c5.7 0 8.6 2.2 8.6 6.6 0 4.9-3.6 7.3-10.7 7.3-3 0-6-.4-8.9-1.2M76.4 46.6c2.9 0 4.3-1.5 4.3-4.4 0-3.6-2.1-5.5-6.4-5.5h-2v-4.2c5.4-.9 8.1-3.1 8.1-6.8 0-2-1.2-2.9-3.6-2.9h-9.5v23.7h9.1zm-15.6 5.6v-35h16.4c6.7 0 10 2.7 10 8.1 0 4-2.2 6.8-6.5 8.5 4.6.9 6.9 3.5 6.9 7.9C87.6 48.6 84 52 76.7 52H60.8zM92.6 17.3h6.5v35h-6.5z"/><g><path class="st0" d="M114.5 41.2c-3.1 0-4.7 1-4.7 2.9 0 2 1.3 2.9 3.9 2.9 2.6 0 4.9-.7 6.7-2v-3.4c-1.6-.2-3.6-.4-5.9-.4m-11.2 3c0-5.3 3.7-7.9 11.2-7.9 2.2 0 4.2.2 6 .5v-1.7c0-2.3-2.2-3.4-6.7-3.4-2.8 0-5.6.4-8.4 1.2v-5.1c2.8-.8 5.6-1.2 8.4-1.2 8.8 0 13.2 2.8 13.2 8.5v17.2h-3.3l-2.8-1.8c-2.2 1.2-4.6 1.8-7.1 1.8-7-.1-10.5-2.7-10.5-8.1M132.4 51v-5.4c2.9 1.1 6.1 1.7 9.9 1.7 2.8 0 4.2-.9 4.2-2.7 0-1.6-.9-2.4-2.8-2.4H139c-5.2 0-7.8-2.6-7.8-7.8 0-5.4 3.8-8.1 11.4-8.1 3.2 0 6.3.5 9.1 1.5v5.4c-2.9-1.1-6-1.7-9.3-1.7-3.5 0-5.3.9-5.3 2.7 0 1.6 1 2.4 3.1 2.4h4.2c5.7 0 8.6 2.6 8.6 7.8 0 5.4-3.6 8.1-10.9 8.1-3.6 0-6.8-.5-9.7-1.5M162.2 37.2h10.7c.2-3.7-1.5-5.5-5.1-5.5-3.5-.1-5.4 1.8-5.6 5.5m16.8 4.7h-16.8c0 3.5 2.8 5.2 8.5 5.2 2.6 0 5.2-.2 7.8-.7v5.1c-2.3.5-5.2.7-8.8.7-9.3 0-14-4.4-14-13.1 0-8.4 4.3-12.5 12.8-12.5s12 5.1 10.5 15.3M183.6 52.2V26.6h5l.8 3.3c2.3-2.2 4.6-3.3 7.1-3.3v5.2c-2.4 0-4.6 1.1-6.5 3.3v17.2h-6.4zM1.4 6.9C1.4 11 4 13 9.1 13h3.1V.2C5 .6 1.4 2.8 1.4 6.9M28.5 14.1c-2.6-.7-5.6-1.1-8.9-1.1h-7.4v14.1h5.5c4.7 0 7.1 2.1 7.1 6.1 0 4.5-3.5 6.8-10.5 6.8h-2.1V27.2H6c-2.2 0-4.2-.2-6-.6V51.9c3.4.6 6.9.9 10.6 1h6.7C33.1 52 41 45.2 41 32.7c0-10-4.2-16.2-12.5-18.6"/></g></svg>