<svg id="Ebene_1" xmlns="http://www.w3.org/2000/svg" xmlns:xlink="http://www.w3.org/1999/xlink" viewBox="0 0 500 500"><style>.st0{fill:#f5e838}.st1{fill:#c20312}.st2{fill:#4865aa}.st3{fill:#609d3b}.st4,.st5{fill:#FFF}.st5{clip-path:url(#SVGID_2_)}</style><path class="st0" d="M-.5 0h250v250H-.5z"/><path class="st1" d="M-.5 250h250v250H-.5z"/><path class="st2" d="M249.5 0h250v250h-250z"/><path class="st3" d="M249.5 250h250v250h-250z"/><path class="st4" d="M92.8 200.8V102l61.1 98.8h30.7V49.2h-28.4v101.2l-62-101.2H64.4v151.6z"/><defs><path id="SVGID_1_" d="M-.5 0h500v500H-.5z"/></defs><clipPath id="SVGID_2_"><use xlink:href="#SVGID_1_" overflow="visible"/></clipPath><path class="st5" d="M64.1 380.1c0 16.9 1 29.8 3 38.4 1.4 5.9 4.2 11.5 8.6 16.8 4.3 5.3 10.2 9.7 17.7 13 7.5 3.3 18.4 5 32.9 5 12 0 21.7-1.5 29.1-4.6 7.4-3.1 13.4-7.2 17.8-12.4s7.5-11.5 9.1-19c1.7-7.5 2.5-20.4 2.5-38.6v-79.6h-30.6v83.8c0 12-.4 20.6-1.3 25.7-.9 5.2-3.5 9.5-8 13.1-4.4 3.5-11 5.3-19.6 5.3-8.5 0-15.3-1.9-20.2-5.6-4.9-3.8-8-8.7-9.4-14.9-.8-3.9-1.1-12.3-1.1-25.3v-82.1H64.1v81z"/><path class="st4" d="M389.1 421.7h-29v29h29v-29zm-6.3-10l7.4-76.9v-35.6h-31.4v35.6l7.5 76.9h16.5zM432.6 200.8v-25.6H348V134h76.1v-25.5H348V74.9h81.7V49.2H317.4v151.6z"/></svg>